<?xml version="1.0" encoding="UTF-8"?>
<svg version="1.1" xmlns="http://www.w3.org/2000/svg" width="500" height="500">
<path d="M0 0 C165 0 330 0 500 0 C500 165 500 330 500 500 C335 500 170 500 0 500 C0 335 0 170 0 0 Z " fill="none" transform="translate(0,0)"/>
<path d="M0 0 C1.07516876 -0.01929062 2.15033752 -0.03858124 3.25808716 -0.05845642 C8.19236977 -0.11618612 13.12650469 -0.16550267 18.06103516 -0.19628906 C20.66045432 -0.21784823 23.25980131 -0.25192562 25.85888672 -0.29882812 C29.60921624 -0.36590059 33.35804156 -0.39330534 37.10888672 -0.41235352 C38.84212692 -0.4540995 38.84212692 -0.4540995 40.61038208 -0.49668884 C46.8619898 -0.48083525 51.08061276 -0.0281606 55.84683228 4.1723175 C59.73233268 8.12020481 63.51411139 12.14629453 67.22494888 16.25754738 C70.40241134 19.74937104 73.65996983 23.16714602 76.90248299 26.59843922 C79.72091374 29.58967993 82.50762042 32.60116374 85.23779297 35.67333984 C99.44636118 52.21667628 99.44636118 52.21667628 119.28623009 59.13800716 C125.01808428 59.39630258 130.71198452 59.05519918 136.41012573 58.40312195 C137.21563873 58.33897598 138.02115173 58.27483002 138.85107422 58.20874023 C139.85107422 59.20874023 139.85107422 59.20874023 140.03076172 63.18139648 C139.95753247 70.27327043 139.09344332 77.2916127 138.25195312 84.32470703 C137.97389998 86.66453658 137.71089451 89.00575506 137.44873047 91.34741211 C137.27384963 92.84165839 137.09810013 94.33580332 136.92138672 95.82983398 C136.8056279 96.87511513 136.8056279 96.87511513 136.68753052 97.94151306 C136.26029185 101.40617264 135.82829991 103.24290169 133.85107422 106.20874023 C130.90977809 106.70568573 128.12932636 107.00418654 125.16357422 107.20874023 C123.80220337 107.33297363 123.80220337 107.33297363 122.41333008 107.4597168 C116.62752465 107.97826273 110.85910347 108.29272144 105.05419922 108.50561523 C88.77220909 108.76062281 88.77220909 108.76062281 74.9543457 116.27612305 C72.86143008 118.61649881 70.93833089 121.00689077 69.21191406 123.63061523 C67.4002676 125.7315271 65.23636445 126.82458284 62.85107422 128.20874023 C64.21623672 128.22087051 64.21623672 128.22087051 65.60897827 128.23324585 C74.17327505 128.31108912 82.73741242 128.39834835 91.30150414 128.49626732 C95.70471401 128.54627776 100.10789933 128.59260717 104.51123047 128.63061523 C108.7582901 128.66740835 113.00514666 128.71375157 117.25203323 128.76680374 C118.87475661 128.78537959 120.49752356 128.80047568 122.12031174 128.8120842 C124.38803794 128.82889248 126.6552958 128.85791318 128.92285156 128.88989258 C130.2152475 128.90321625 131.50764343 128.91653992 132.83920288 128.93026733 C135.85107422 129.20874023 135.85107422 129.20874023 137.85107422 131.20874023 C137.47607422 133.83374023 137.47607422 133.83374023 136.85107422 136.20874023 C133.88107422 137.19874023 133.88107422 137.19874023 130.85107422 138.20874023 C131.18107422 138.53874023 131.51107422 138.86874023 131.85107422 139.20874023 C132.21503399 143.06671379 132.41114957 145.36862721 130.22607422 148.64624023 C127.13422191 150.68035359 125.48739997 150.81479453 121.85107422 150.20874023 C119.47607422 148.64624023 119.47607422 148.64624023 117.85107422 146.20874023 C117.47607422 142.58374023 117.47607422 142.58374023 117.85107422 139.20874023 C118.51107422 138.54874023 119.17107422 137.88874023 119.85107422 137.20874023 C100.05107422 137.20874023 80.25107422 137.20874023 59.85107422 137.20874023 C60.51107422 137.86874023 61.17107422 138.52874023 61.85107422 139.20874023 C62.28352022 143.10075429 62.42953887 145.34104326 60.22607422 148.64624023 C57.13422191 150.68035359 55.48739997 150.81479453 51.85107422 150.20874023 C49.47607422 148.64624023 49.47607422 148.64624023 47.85107422 146.20874023 C47.35107422 142.70874023 47.35107422 142.70874023 47.85107422 139.20874023 C49.85107422 136.77124023 49.85107422 136.77124023 51.85107422 135.20874023 C51.06732422 134.75499023 50.28357422 134.30124023 49.47607422 133.83374023 C46.52349516 130.88116117 46.67563378 130.70841276 46.46264648 126.86694336 C44.9708484 118.70858362 38.16223308 113.56080904 32.44091797 108.05249023 C31.18882188 106.8178794 29.93856884 105.58139688 28.69007874 104.34313965 C25.41480169 101.1039015 22.1166578 97.88900179 18.81256104 94.67919922 C14.79034813 90.76336069 10.7951415 86.82000806 6.796525 82.88010406 C3.68839381 79.81844569 0.57623491 76.76128632 -2.54884338 73.71691895 C-3.12034119 73.15861389 -3.69183899 72.60030884 -4.28065491 72.02508545 C-5.3493454 70.98139247 -6.41998197 69.93968711 -7.4928894 68.90032959 C-11.39142618 65.08634644 -12.27024578 63.34581082 -12.34179688 57.9362793 C-12.3578598 56.8346344 -12.37392273 55.7329895 -12.39047241 54.59796143 C-12.43487664 49.55253665 -12.47599281 44.50724439 -12.49902344 39.46166992 C-12.51234684 36.79958916 -12.5428578 34.13932429 -12.58105469 31.47729492 C-12.6358067 27.64274997 -12.65769708 23.80924841 -12.67236328 19.97436523 C-12.69503265 18.78667542 -12.71770203 17.5989856 -12.74105835 16.37530518 C-12.71749118 7.16145642 -12.71749118 7.16145642 -9.74121094 3.47338867 C-6.20807112 0.3867994 -4.58962223 0.07682426 0 0 Z " fill="#FE7F01" transform="translate(186.14892578125,128.791259765625)"/>
<path d="M0 0 C3.06294727 0.200849 5.97121424 0.54546974 9 1 C10.67255859 1.22236328 10.67255859 1.22236328 12.37890625 1.44921875 C21.60711131 2.7380742 21.60711131 2.7380742 25 5 C26.16674805 7.33837891 26.16674805 7.33837891 27.26171875 10.2265625 C27.65810547 11.2578125 28.05449219 12.2890625 28.46289062 13.3515625 C28.86701172 14.43179688 29.27113281 15.51203125 29.6875 16.625 C30.10322266 17.71296875 30.51894531 18.8009375 30.94726562 19.921875 C31.97353807 22.61141659 32.99068381 25.30405918 34 28 C35.13783432 28.03536362 36.27566864 28.07072723 37.44798279 28.10716248 C48.14647342 28.44029639 58.84479427 28.77847113 69.5429678 29.12164211 C75.04362379 29.29792575 80.54432495 29.47240349 86.04516602 29.64282227 C91.34910399 29.80720626 96.65287466 29.97624481 101.95656013 30.14857674 C103.98479981 30.21364852 106.01309495 30.27701388 108.04144096 30.33868217 C110.87211076 30.42502926 113.70252648 30.51732278 116.53295898 30.61108398 C117.38028091 30.63554092 118.22760284 30.65999786 119.1006012 30.68519592 C124.88594784 30.88594784 124.88594784 30.88594784 126 32 C126.38225791 40.45122379 125.40302632 48.74011487 124.40087891 57.1159668 C124.12282576 59.45579635 123.85982029 61.79701483 123.59765625 64.13867188 C123.42277541 65.63291816 123.24702592 67.12706309 123.0703125 68.62109375 C122.95455368 69.66637489 122.95455368 69.66637489 122.8364563 70.73277283 C122.40921763 74.19743241 121.9772257 76.03416146 120 79 C117.05870387 79.49694549 114.27825214 79.79544631 111.3125 80 C109.95112915 80.1242334 109.95112915 80.1242334 108.56225586 80.25097656 C102.77645044 80.7695225 97.00802925 81.0839812 91.203125 81.296875 C74.92113487 81.55188257 74.92113487 81.55188257 61.10327148 89.06738281 C59.01035586 91.40775858 57.08725667 93.79815053 55.36083984 96.421875 C53.54919338 98.52278687 51.38529023 99.6158426 49 101 C49.91010834 101.00808685 50.82021667 101.01617371 51.75790405 101.02450562 C60.32220083 101.10234889 68.8863382 101.18960811 77.45042992 101.28752708 C81.85363979 101.33753753 86.25682512 101.38386693 90.66015625 101.421875 C94.90721588 101.45866811 99.15407244 101.50501133 103.40095901 101.55806351 C105.02368239 101.57663935 106.64644935 101.59173545 108.26923752 101.60334396 C110.53696372 101.62015225 112.80422158 101.64917295 115.07177734 101.68115234 C116.36417328 101.69447601 117.65656921 101.70779968 118.98812866 101.7215271 C122 102 122 102 124 104 C123.625 106.625 123.625 106.625 123 109 C121.02 109.66 119.04 110.32 117 111 C117.33 111.33 117.66 111.66 118 112 C118.36395977 115.85797355 118.56007535 118.15988698 116.375 121.4375 C113.28314769 123.47161336 111.63632575 123.60605429 108 123 C105.625 121.4375 105.625 121.4375 104 119 C103.625 115.375 103.625 115.375 104 112 C104.66 111.34 105.32 110.68 106 110 C86.2 110 66.4 110 46 110 C46.99 110.99 46.99 110.99 48 112 C48.43244601 115.89201406 48.57846465 118.13230302 46.375 121.4375 C43.28314769 123.47161336 41.63632575 123.60605429 38 123 C35.625 121.4375 35.625 121.4375 34 119 C33.5 115.5 33.5 115.5 34 112 C36 109.5625 36 109.5625 38 108 C37.195625 107.484375 36.39125 106.96875 35.5625 106.4375 C33 104 33 104 32.0625 100.5625 C31.98232658 95.99261491 32.50284767 93.69276017 35.5546875 90.2421875 C38.50157862 87.21941077 41.49913333 84.38058933 45 82 C44.3788678 75.84174945 41.97667384 70.41094366 39.703125 64.71484375 C39.27247742 63.6221669 38.84182983 62.52949005 38.39813232 61.40370178 C37.02093405 57.91276014 35.63568508 54.42508047 34.25 50.9375 C32.88044666 47.47420329 31.51253533 44.01026111 30.14471436 40.54627991 C29.29460342 38.39519893 28.44317594 36.24463756 27.59014893 34.0947113 C26.38876607 31.06495618 25.19296399 28.03307951 24 25 C23.53380249 23.81802032 23.06760498 22.63604065 22.58728027 21.41824341 C22.12889771 20.24454193 21.67051514 19.07084045 21.19824219 17.86157227 C20.77774597 16.78843277 20.35724976 15.71529327 19.92401123 14.6096344 C19 12 19 12 19 10 C18.31035156 9.95101562 17.62070313 9.90203125 16.91015625 9.8515625 C10.76590531 9.36271949 4.9850923 8.47174401 -1 7 C-1.625 4.625 -1.625 4.625 -2 2 C-1.34 1.34 -0.68 0.68 0 0 Z " fill="#2F2723" transform="translate(200,156)"/>
<path d="M0 0 C5.09473426 3.07606597 9.40478922 7.27686765 11.3125 13 C12.01669922 20.14589046 11.66631779 26.10560053 7.3125 32 C2.93008931 36.70658901 -1.61717493 39.03618566 -8 39.375 C-12.93201581 39.23549207 -16.72620284 37.95799919 -20.6875 35 C-25.76358432 29.56317872 -28.19806436 23.77963619 -28 16.33984375 C-27.27677197 10.92467387 -24.78818405 6.68447702 -20.6875 3.125 C-13.87588703 -1.69989252 -8.0785261 -2.19078674 0 0 Z " fill="#2B2728" transform="translate(183.6875,296)"/>
<path d="M0 0 C3.3 0 6.6 0 10 0 C11.17314026 2.76825188 12.33870215 5.53928486 13.5 8.3125 C13.83386719 9.09818359 14.16773438 9.88386719 14.51171875 10.69335938 C14.82753906 11.45068359 15.14335937 12.20800781 15.46875 12.98828125 C15.90864258 14.03302612 15.90864258 14.03302612 16.35742188 15.09887695 C17 17 17 17 17 20 C17.66 20 18.32 20 19 20 C19.17015625 19.39414062 19.3403125 18.78828125 19.515625 18.1640625 C21.31852465 11.93063285 23.51643366 5.9948153 26 0 C29.3 0 32.6 0 36 0 C37.62514787 4.87544362 37.66670267 9.9581804 38.0625 15.0625 C38.15337891 16.15755859 38.24425781 17.25261719 38.33789062 18.38085938 C38.85781149 24.94437169 39.09203583 31.41637057 39 38 C36.03 38 33.06 38 30 38 C29.93941406 36.97519531 29.87882812 35.95039063 29.81640625 34.89453125 C29.73194974 33.53384305 29.64730433 32.17316657 29.5625 30.8125 C29.52318359 30.13896484 29.48386719 29.46542969 29.44335938 28.77148438 C29.2078078 25.05701727 28.73420901 21.67104506 28 18 C25.69 24.6 23.38 31.2 21 38 C19.02 38 17.04 38 15 38 C12.69 31.07 10.38 24.14 8 17 C7.36540309 20.17298453 6.86299735 22.83590372 6.68359375 25.98828125 C6.64169922 26.69404297 6.59980469 27.39980469 6.55664062 28.12695312 C6.49766602 29.20879883 6.49766602 29.20879883 6.4375 30.3125 C6.39431641 31.05306641 6.35113281 31.79363281 6.30664062 32.55664062 C6.20129568 34.37091464 6.10021684 36.1854355 6 38 C3.03 38 0.06 38 -3 38 C-3.23510782 29.49584551 -2.50989633 21.25104818 -1.5 12.8125 C-1.35691406 11.57435547 -1.21382812 10.33621094 -1.06640625 9.06054688 C-0.71649768 6.03966957 -0.36092856 3.01957699 0 0 Z " fill="#2A2627" transform="translate(200,296)"/>
<path d="M0 0 C3.3 0 6.6 0 10 0 C12.91116258 6.25957488 15.66984861 12.50010403 18 19 C21.26549728 12.81888014 23.68987729 6.60035059 26 0 C29.63 0 33.26 0 37 0 C39.38297872 27.29787234 39.38297872 27.29787234 39 38 C36.36 38 33.72 38 31 38 C30.01 28.1 30.01 28.1 29 18 C27.33957556 20.49063665 26.44675832 22.25176398 25.4921875 25.01171875 C25.22792969 25.76904297 24.96367187 26.52636719 24.69140625 27.30664062 C24.42199219 28.09232422 24.15257812 28.87800781 23.875 29.6875 C23.45927734 30.88342773 23.45927734 30.88342773 23.03515625 32.10351562 C22.3529846 34.06769952 21.67598902 36.03367973 21 38 C19.35 38 17.7 38 16 38 C12.99083459 30.76519806 10.42581879 23.45072913 8 16 C7.34 23.26 6.68 30.52 6 38 C3.03 38 0.06 38 -3 38 C-2.36712264 25.29248877 -1.27451018 12.65848458 0 0 Z " fill="#282425" transform="translate(244,296)"/>
<path d="M0 0 C17 0 17 0 23 3 C25.820631 5.86833723 26.43135748 7.95100643 26.4375 11.9375 C26.33611897 15.56053769 26.10063946 16.83897686 24.125 20 C23.42375 20.66 22.7225 21.32 22 22 C21.34 22.66 20.68 23.32 20 24 C20.36351562 24.41886475 20.72703125 24.83772949 21.1015625 25.26928711 C22.73692173 27.15650214 24.36850183 29.04694638 26 30.9375 C26.57234375 31.59685547 27.1446875 32.25621094 27.734375 32.93554688 C28.27578125 33.56396484 28.8171875 34.19238281 29.375 34.83984375 C29.87773437 35.42113037 30.38046875 36.00241699 30.8984375 36.60131836 C32 38 32 38 32 39 C27.71954046 39.92669743 24.24611804 40.18334437 20 39 C15.69280263 35.18133163 12.84627017 29.93689339 10 25 C9.67 29.62 9.34 34.24 9 39 C6.03 39 3.06 39 0 39 C0 26.13 0 13.26 0 0 Z " fill="#2B2829" transform="translate(314,295)"/>
<path d="M0 0 C7.26 0 14.52 0 22 0 C22 2.64 22 5.28 22 8 C17.71 8 13.42 8 9 8 C9 10.64 9 13.28 9 16 C13.29 16 17.58 16 22 16 C22 18.64 22 21.28 22 24 C17.71 24 13.42 24 9 24 C9 26.31 9 28.62 9 31 C13.29 31 17.58 31 22 31 C22 33.64 22 36.28 22 39 C14.74 39 7.48 39 0 39 C0 26.13 0 13.26 0 0 Z " fill="#2D292A" transform="translate(287,295)"/>
<path d="M0 0 C1.11375 0.7425 1.11375 0.7425 2.25 1.5 C0.5 7.25 0.5 7.25 -1.75 9.5 C-2.41 9.17 -3.07 8.84 -3.75 8.5 C-9.06280831 7.90113272 -13.32516204 7.55960694 -17.875 10.5625 C-20.14713362 14.12217601 -20.82422031 16.26944207 -20.75 20.5 C-18.77061533 24.24669241 -17.27983947 26.14677369 -13.75 28.5 C-9.20468578 28.71993456 -5.18409099 28.60852275 -0.75 27.5 C2.25 32.125 2.25 32.125 2.25 35.5 C-4.02629625 38.77458935 -10.027524 39.90420525 -16.95703125 37.84375 C-23.30232038 35.02901371 -28.10455854 29.92294119 -30.75 23.5 C-31.70146014 17.69060397 -31.39160462 12.71703728 -28.3125 7.625 C-21.62526988 -1.05748759 -10.3512523 -5.08997749 0 0 Z " fill="#2C2829" transform="translate(376.75,296.5)"/>
<path d="M0 0 C1.6328125 0.82421875 1.6328125 0.82421875 3.8828125 2.32421875 C3.1328125 5.26171875 3.1328125 5.26171875 1.8828125 8.32421875 C-1.26857246 9.60601803 -4.21010982 9.27832613 -7.5546875 9.07421875 C-11.49598596 9.0584114 -12.84455125 9.15849867 -16.3046875 11.26171875 C-18.74201491 15.37996162 -19.05747622 18.64818835 -18.1171875 23.32421875 C-16.32325082 26.19451744 -15.13455474 27.81553513 -12.1171875 29.32421875 C-7.58605004 29.47278063 -3.53836046 29.42951199 0.8828125 28.32421875 C3.8828125 32.94921875 3.8828125 32.94921875 3.8828125 36.32421875 C-1.80216955 39.29029634 -6.71709125 40.34197106 -13.1171875 39.32421875 C-19.94860652 36.95189317 -24.61778728 32.61064129 -28.1171875 26.32421875 C-29.87441692 20.78301676 -29.83487857 15.98926203 -27.5546875 10.69921875 C-21.36478198 1.07292441 -11.2477555 -3.59015074 0 0 Z " fill="#2B2728" transform="translate(150.1171875,295.67578125)"/>
<path d="M0 0 C7.26 0 14.52 0 22 0 C22 2.31 22 4.62 22 7 C17.38 7 12.76 7 8 7 C8 9.64 8 12.28 8 15 C12.29 15 16.58 15 21 15 C21 17.64 21 20.28 21 23 C17.04 23 13.08 23 9 23 C9 25.31 9 27.62 9 30 C13.29 30 17.58 30 22 30 C22 32.64 22 35.28 22 38 C14.74 38 7.48 38 0 38 C0 25.46 0 12.92 0 0 Z " fill="#282425" transform="translate(383,296)"/>
<path d="M0 0 C7.26 0 14.52 0 22 0 C22 2.31 22 4.62 22 7 C17.38 7 12.76 7 8 7 C8 9.64 8 12.28 8 15 C12.29 15 16.58 15 21 15 C21 17.64 21 20.28 21 23 C17.04 23 13.08 23 9 23 C9 25.31 9 27.62 9 30 C13.29 30 17.58 30 22 30 C22 32.64 22 35.28 22 38 C14.74 38 7.48 38 0 38 C0 25.46 0 12.92 0 0 Z " fill="#282425" transform="translate(96,296)"/>
<path d="M0 0 C2.69990662 1.79993774 4.5418865 3.083773 6 6 C6.12207871 7.78859511 6.17548448 9.58228381 6.1875 11.375 C6.20167969 12.33148438 6.21585938 13.28796875 6.23046875 14.2734375 C5.99479658 17.0615591 5.48607398 18.65412608 4 21 C0.56322682 23.54575791 -2.85107675 23.43672876 -7 23 C-10.38939556 20.86320715 -11.72582557 19.8225233 -13 16 C-13.41873961 11.69986636 -13.4550224 8.06930264 -11.75 4.0625 C-8.36100732 0.06833006 -5.17655413 -0.63386377 0 0 Z " fill="#FAFAFA" transform="translate(179,303)"/>
<path d="M0 0 C3 1.9375 3 1.9375 5 5 C5.39265524 8.04945236 5.2994658 10.94544881 5 14 C4.030625 14.268125 3.06125 14.53625 2.0625 14.8125 C1.051875 15.204375 0.04125 15.59625 -1 16 C-1.33 16.99 -1.66 17.98 -2 19 C-4.625 19.4375 -4.625 19.4375 -8 19 C-11.58431992 16.21488655 -13.7332595 13.33370252 -14.625 8.875 C-13.85587772 5.33703751 -12.50522717 3.57891032 -10 1 C-6.76584084 -0.61707958 -3.49624735 -0.56822376 0 0 Z " fill="#FEFBF7" transform="translate(200,142)"/>
<path d="M0 0 C-2.2207461 2.27919862 -4.45302104 4.54676959 -6.6875 6.8125 C-7.62625977 7.77639648 -7.62625977 7.77639648 -8.58398438 8.75976562 C-16.4640458 16.72234078 -16.4640458 16.72234078 -21.67578125 17.29296875 C-22.98095703 17.24076172 -22.98095703 17.24076172 -24.3125 17.1875 C-25.19550781 17.16042969 -26.07851562 17.13335937 -26.98828125 17.10546875 C-27.65214844 17.07066406 -28.31601563 17.03585937 -29 17 C-28.31694227 10.45403004 -23.78864279 7.96015788 -19 4 C-18.21625 3.195625 -17.4325 2.39125 -16.625 1.5625 C-11.75716391 -1.33502148 -5.34709464 -1.78236488 0 0 Z " fill="#FA8006" transform="translate(268,240)"/>
<path d="M0 0 C1.90234375 0.4140625 1.90234375 0.4140625 4.33984375 1.9765625 C6.46886605 5.29783728 6.97051948 7.45987045 6.90234375 11.4140625 C4.90234375 14.8515625 4.90234375 14.8515625 1.90234375 17.4140625 C-1.77263762 17.99432272 -4.02499841 17.83748007 -7.47265625 16.4765625 C-10.10567576 13.13465313 -10.38306855 9.59279131 -10.09765625 5.4140625 C-7.79079623 0.49944768 -5.13142918 -0.36311789 0 0 Z " fill="none" transform="translate(190.09765625,347.5859375)"/>
<path d="M0 0 C3.96 0 7.92 0 12 0 C12 4.29 12 8.58 12 13 C8.04 13 4.08 13 0 13 C0 8.71 0 4.42 0 0 Z " fill="#F67B01" transform="translate(251,191)"/>
<path d="M0 0 C3.96 0 7.92 0 12 0 C12 3.96 12 7.92 12 12 C8.04 12 4.08 12 0 12 C0 8.04 0 4.08 0 0 Z " fill="#F97C00" transform="translate(281,192)"/>
<path d="M0 0 C3.96 0 7.92 0 12 0 C12 3.96 12 7.92 12 12 C8.04 12 4.08 12 0 12 C0 8.04 0 4.08 0 0 Z " fill="#FA7D00" transform="translate(266,192)"/>
<path d="M0 0 C3.96 0 7.92 0 12 0 C12 3.96 12 7.92 12 12 C8.7 12 5.4 12 2 12 C-0.35333796 7.29332409 -0.17102038 5.1306114 0 0 Z " fill="#FC7D00" transform="translate(251,221)"/>
<path d="M0 0 C1.32 0.33 2.64 0.66 4 1 C4.33 0.67 4.66 0.34 5 0 C7.4375 -0.1875 7.4375 -0.1875 10 0 C12 2 12 2 12.265625 3.875 C12.26046875 4.57625 12.2553125 5.2775 12.25 6 C12.25515625 6.70125 12.2603125 7.4025 12.265625 8.125 C12 10 12 10 10 12 C6.375 11.625 6.375 11.625 3 11 C3 12.65 3 14.3 3 16 C3.66 16.33 4.32 16.66 5 17 C3.35 17 1.7 17 0 17 C0 11.39 0 5.78 0 0 Z " fill="#454142" transform="translate(308,353)"/>
<path d="M0 0 C3.96 0 7.92 0 12 0 C12 3.63 12 7.26 12 11 C8.04 11 4.08 11 0 11 C0 7.37 0 3.74 0 0 Z " fill="#FF850D" transform="translate(281,207)"/>
<path d="M0 0 C3.96 0 7.92 0 12 0 C12 3.63 12 7.26 12 11 C8.04 11 4.08 11 0 11 C0 7.37 0 3.74 0 0 Z " fill="#FF7F00" transform="translate(266,207)"/>
<path d="M0 0 C3.96 0 7.92 0 12 0 C12 3.63 12 7.26 12 11 C8.04 11 4.08 11 0 11 C0 7.37 0 3.74 0 0 Z " fill="#FF7F00" transform="translate(251,207)"/>
<path d="M0 0 C0 3.96 0 7.92 0 12 C-3.96 12 -7.92 12 -12 12 C-12.30788712 8.07443924 -12.30854114 5.6042264 -10.5 2.0625 C-6.88822409 -0.91721513 -4.58919421 -0.38243285 0 0 Z " fill="#F7F6F5" transform="translate(308,206)"/>
<path d="M0 0 C3.96 0 7.92 0 12 0 C12 3.3 12 6.6 12 10 C6.06 10.495 6.06 10.495 0 11 C0 7.37 0 3.74 0 0 Z " fill="#FE8003" transform="translate(266,221)"/>
<path d="M0 0 C2 3 2 3 1.75 6.0625 C1 9 1 9 -1 11 C-4.10347254 11.33015665 -6.15781176 11.50531294 -8.875 9.875 C-10.52854531 7.11909116 -10.39365568 5.14924548 -10 2 C-7.65569181 -2.27491494 -4.20074737 -1.06928115 0 0 Z " fill="#423F40" transform="translate(304,354)"/>
<path d="M0 0 C3.63 0 7.26 0 11 0 C11 4.29 11 8.58 11 13 C8.69 13 6.38 13 4 13 C3.32942113 11.2097939 2.6636531 9.41778511 2 7.625 C1.62875 6.62726563 1.2575 5.62953125 0.875 4.6015625 C0 2 0 2 0 0 Z " fill="#F87C00" transform="translate(237,191)"/>
<path d="M0 0 C0.90492188 0.02320313 1.80984375 0.04640625 2.7421875 0.0703125 C4.10730469 0.09738281 4.10730469 0.09738281 5.5 0.125 C6.19867188 0.14820313 6.89734375 0.17140625 7.6171875 0.1953125 C7.6171875 2.1753125 7.6171875 4.1553125 7.6171875 6.1953125 C6.9571875 6.1953125 6.2971875 6.1953125 5.6171875 6.1953125 C5.2871875 5.2053125 4.9571875 4.2153125 4.6171875 3.1953125 C2.6371875 3.1953125 0.6571875 3.1953125 -1.3828125 3.1953125 C-1.7128125 4.1853125 -2.0428125 5.1753125 -2.3828125 6.1953125 C-1.44308594 6.48535156 -1.44308594 6.48535156 -0.484375 6.78125 C0.33289063 7.04164063 1.15015625 7.30203125 1.9921875 7.5703125 C2.80429687 7.82554687 3.61640625 8.08078125 4.453125 8.34375 C6.6171875 9.1953125 6.6171875 9.1953125 8.6171875 11.1953125 C8.3671875 13.7578125 8.3671875 13.7578125 7.6171875 16.1953125 C4.65044179 17.67868536 1.89966084 17.25190687 -1.3828125 17.1953125 C-2.7028125 17.1953125 -4.0228125 17.1953125 -5.3828125 17.1953125 C-5.3828125 15.2153125 -5.3828125 13.2353125 -5.3828125 11.1953125 C-4.3928125 11.5253125 -3.4028125 11.8553125 -2.3828125 12.1953125 C-2.3828125 12.8553125 -2.3828125 13.5153125 -2.3828125 14.1953125 C-0.0728125 14.1953125 2.2371875 14.1953125 4.6171875 14.1953125 C4.6171875 13.2053125 4.6171875 12.2153125 4.6171875 11.1953125 C0.1621875 9.2153125 0.1621875 9.2153125 -4.3828125 7.1953125 C-4.5078125 4.8203125 -4.5078125 4.8203125 -4.3828125 2.1953125 C-2.3828125 0.1953125 -2.3828125 0.1953125 0 0 Z " fill="#3A3637" transform="translate(268.3828125,347.8046875)"/>
<path d="M0 0 C1.90234375 0.4140625 1.90234375 0.4140625 4.33984375 1.9765625 C6.46886605 5.29783728 6.97051948 7.45987045 6.90234375 11.4140625 C4.90234375 14.8515625 4.90234375 14.8515625 1.90234375 17.4140625 C-1.77263762 17.99432272 -4.02499841 17.83748007 -7.47265625 16.4765625 C-10.10567576 13.13465313 -10.38306855 9.59279131 -10.09765625 5.4140625 C-7.79079623 0.49944768 -5.13142918 -0.36311789 0 0 Z M-6.97265625 3.5390625 C-8.63343296 6.30702369 -8.48570831 8.24497068 -8.09765625 11.4140625 C-7.12661837 13.87592829 -7.12661837 13.87592829 -5.09765625 15.4140625 C-1.94697585 15.87353673 -0.01928097 15.93631651 2.77734375 14.3515625 C4.54507649 11.3071339 4.27058291 8.8509613 3.90234375 5.4140625 C2.92185437 3.35003565 2.92185437 3.35003565 0.90234375 2.4140625 C-2.24690173 2.02040682 -4.21674741 1.88551719 -6.97265625 3.5390625 Z " fill="#413D3E" transform="translate(190.09765625,347.5859375)"/>
<path d="M0 0 C2.05078125 0.03255208 4.1015625 0.06510417 6.15234375 0.09765625 C6.29520089 8.66908482 6.29520089 8.66908482 5.15234375 12.09765625 C2.51234375 12.09765625 -0.12765625 12.09765625 -2.84765625 12.09765625 C-2.87452904 10.28523573 -2.8939934 8.47270392 -2.91015625 6.66015625 C-2.92175781 5.65082031 -2.93335938 4.64148438 -2.9453125 3.6015625 C-2.81063978 0.1485539 -2.81063978 0.1485539 0 0 Z " fill="#E6E6E6" transform="translate(312.84765625,205.90234375)"/>
<path d="M0 0 C3.96 0 7.92 0 12 0 C12 2.64 12 5.28 12 8 C6.06 8.495 6.06 8.495 0 9 C0 6.03 0 3.06 0 0 Z " fill="#FBFBFB" transform="translate(296,221)"/>
<path d="M0 0 C0 2.97 0 5.94 0 9 C-3.12889199 9.782223 -5.1400091 10.11433318 -8.25 10.0625 C-10.10625 10.0315625 -10.10625 10.0315625 -12 10 C-12.51818998 6.37267012 -12.14663138 5.19995189 -9.9375 2.1875 C-6.34825296 -0.48534354 -4.37381963 -0.42880585 0 0 Z " fill="#FCFCFC" transform="translate(293,221)"/>
<path d="M0 0 C2.97 0 5.94 0 9 0 C9 3.63 9 7.26 9 11 C6.03 11 3.06 11 0 11 C0 7.37 0 3.74 0 0 Z " fill="#F8F8F8" transform="translate(311,193)"/>
<path d="M0 0 C1.32 0 2.64 0 4 0 C4.33 1.65 4.66 3.3 5 5 C5.804375 5.144375 6.60875 5.28875 7.4375 5.4375 C10 6 10 6 11 7 C11.07179964 8.51928038 11.08392007 10.04167482 11.0625 11.5625 C11.05347656 12.38878906 11.04445313 13.21507812 11.03515625 14.06640625 C11.02355469 14.70449219 11.01195312 15.34257812 11 16 C11.66 16.33 12.32 16.66 13 17 C11.68 17 10.36 17 9 17 C9 13.7 9 10.4 9 7 C7.68 7.33 6.36 7.66 5 8 C5 10.97 5 13.94 5 17 C3.35 17 1.7 17 0 17 C0 11.39 0 5.78 0 0 Z " fill="#433F40" transform="translate(279,348)"/>
<path d="M0 0 C2 2 2 2 2 6 C-0.97 6 -3.94 6 -7 6 C-6.01 7.485 -6.01 7.485 -5 9 C-1.41642759 9.25015873 -1.41642759 9.25015873 2 9 C2 9.66 2 10.32 2 11 C-0.82883747 12.41441874 -2.87376745 12.31900332 -6 12 C-7.9375 10.375 -7.9375 10.375 -9 8 C-8.875 4.875 -8.875 4.875 -8 2 C-4.77626323 -0.14915785 -3.73296326 -0.38286803 0 0 Z " fill="#423F40" transform="translate(251,353)"/>
<path d="M0 0 C2.64 0 5.28 0 8 0 C8 3.96 8 7.92 8 12 C6.02 12 4.04 12 2 12 C1.34 8.04 0.68 4.08 0 0 Z " fill="#EFECEA" transform="translate(300,192)"/>
<path d="M0 0 C2.33294775 -0.04241723 4.66702567 -0.04092937 7 0 C8 1 8 1 8.25 4.4375 C8.1675 5.613125 8.085 6.78875 8 8 C5 10 5 10 0 10 C0 6.7 0 3.4 0 0 Z " fill="#EFEFEF" transform="translate(323,303)"/>
<path d="M0 0 C2.475 0.495 2.475 0.495 5 1 C6.28317892 4.84953676 6.06643637 7.94738135 6 12 C4.02 12 2.04 12 0 12 C0 8.04 0 4.08 0 0 Z " fill="#F67C03" transform="translate(296,192)"/>
<path d="M0 0 C4.55555556 0.55555556 4.55555556 0.55555556 6 2 C6.1875 4.4375 6.1875 4.4375 6 7 C5.34 7.66 4.68 8.32 4 9 C-0.55555556 8.44444444 -0.55555556 8.44444444 -2 7 C-2.1875 4.5625 -2.1875 4.5625 -2 2 C-1.34 1.34 -0.68 0.68 0 0 Z " fill="#E3E2E3" transform="translate(309,267)"/>
<path d="M0 0 C4.55555556 0.55555556 4.55555556 0.55555556 6 2 C6.1875 4.4375 6.1875 4.4375 6 7 C5.34 7.66 4.68 8.32 4 9 C-0.55555556 8.44444444 -0.55555556 8.44444444 -2 7 C-2.1875 4.5625 -2.1875 4.5625 -2 2 C-1.34 1.34 -0.68 0.68 0 0 Z " fill="#E6E5E5" transform="translate(239,267)"/>
<path d="M0 0 C2.5 0.125 2.5 0.125 3.5 1.125 C3.625 4.125 3.625 4.125 3.5 7.125 C2.5 8.125 2.5 8.125 0 8.25 C-2.5 8.125 -2.5 8.125 -3.5 7.125 C-3.625 4.125 -3.625 4.125 -3.5 1.125 C-2.5 0.125 -2.5 0.125 0 0 Z " fill="#F7F7F7" transform="translate(299.5,354.875)"/>
<path d="M0 0 C1.67542976 0.28604898 3.34385343 0.61781233 5 1 C5 2.98 5 4.96 5 7 C2.625 7.625 2.625 7.625 0 8 C-0.66 7.34 -1.32 6.68 -2 6 C-1.44444444 1.44444444 -1.44444444 1.44444444 0 0 Z " fill="#F7F7F7" transform="translate(313,355)"/>
<path d="M0 0 C0.99 0.33 1.98 0.66 3 1 C3 1.66 3 2.32 3 3 C7.79308342 3.46522293 7.79308342 3.46522293 11.9375 1.5 C12.288125 1.005 12.63875 0.51 13 0 C13.33 0.99 13.66 1.98 14 3 C12.9375 4.5 12.9375 4.5 11 6 C7.5625 6.1875 7.5625 6.1875 4 6 C2.68 6 1.36 6 0 6 C0 4.02 0 2.04 0 0 Z " fill="#403D3E" transform="translate(263,359)"/>
<path d="M0 0 C2.97 0.495 2.97 0.495 6 1 C5.01 2.485 5.01 2.485 4 4 C3.54084493 6.96842658 3.54084493 6.96842658 3.375 10.1875 C3.30023438 11.27417969 3.22546875 12.36085938 3.1484375 13.48046875 C3.09945313 14.31191406 3.05046875 15.14335937 3 16 C3.66 16.33 4.32 16.66 5 17 C3.35 17 1.7 17 0 17 C0 11.39 0 5.78 0 0 Z " fill="#413E3F" transform="translate(308,353)"/>
<path d="M0 0 C0.99 0 1.98 0 3 0 C3 4.95 3 9.9 3 15 C3.66 15 4.32 15 5 15 C5 15.66 5 16.32 5 17 C3.02 17 1.04 17 -1 17 C-1 16.34 -1 15.68 -1 15 C-0.34 15 0.32 15 1 15 C0.67 10.05 0.34 5.1 0 0 Z " fill="#363233" transform="translate(214,348)"/>
<path d="M0 0 C1.98 0 3.96 0 6 0 C6 2.31 6 4.62 6 7 C4.02 7 2.04 7 0 7 C0 4.69 0 2.38 0 0 Z " fill="#FCFCFC" transform="translate(311,221)"/>
<path d="M0 0 C0.66 0.99 1.32 1.98 2 3 C1.67 3.66 1.34 4.32 1 5 C-1.64 5 -4.28 5 -7 5 C-7 3.68 -7 2.36 -7 1 C-4.46578263 -0.26710868 -2.80561762 -0.28056176 0 0 Z " fill="#929091" transform="translate(251,353)"/>
<path d="M0 0 C0.66 0 1.32 0 2 0 C1.88140625 0.60328125 1.7628125 1.2065625 1.640625 1.828125 C0.66181809 6.9315607 0.66181809 6.9315607 2.75 11.4375 C4.48708704 12.64381044 6.24032551 13.82688367 8 15 C4.6875 14.8125 4.6875 14.8125 1 14 C-1.43255282 11.25356939 -1.94837565 9.51624352 -2.3125 5.875 C-2 3 -2 3 0 0 Z " fill="#332F30" transform="translate(182,350)"/>
<path d="M0 0 C4.29 0 8.58 0 13 0 C13 0.33 13 0.66 13 1 C11.39125 1.12375 11.39125 1.12375 9.75 1.25 C5.66140123 2.06771975 4.40452847 2.67065289 2 6 C1.20318682 8.64184541 1.20318682 8.64184541 1 11 C0.67 11 0.34 11 0 11 C0 7.37 0 3.74 0 0 Z " fill="#AF7032" transform="translate(280,220)"/>
<path d="M0 0 C1.65 0 3.3 0 5 0 C5 3.96 5 7.92 5 12 C1.92732833 7.90310444 0 5.13829491 0 0 Z " fill="#EA7503" transform="translate(243,206)"/>
<path d="M0 0 C1.32 0 2.64 0 4 0 C4 3.3 4 6.6 4 10 C4.66 10 5.32 10 6 10 C6 10.66 6 11.32 6 12 C4.02 12 2.04 12 0 12 C0 11.34 0 10.68 0 10 C0.66 10 1.32 10 2 10 C2 7.36 2 4.72 2 2 C1.34 2 0.68 2 0 2 C0 1.34 0 0.68 0 0 Z " fill="#444041" transform="translate(220,353)"/>
<path d="M0 0 C4.70588235 0.70588235 4.70588235 0.70588235 6 2 C6.14115161 4.67058851 6.04247107 7.32432238 6 10 C6.66 10 7.32 10 8 10 C8 10.66 8 11.32 8 12 C6.68 12 5.36 12 4 12 C3.97421875 11.37351562 3.9484375 10.74703125 3.921875 10.1015625 C3.86515625 9.28429687 3.8084375 8.46703125 3.75 7.625 C3.70359375 6.81289063 3.6571875 6.00078125 3.609375 5.1640625 C3.2077908 2.81161073 3.2077908 2.81161073 0.953125 1.7109375 C0.30859375 1.47632813 -0.3359375 1.24171875 -1 1 C-0.67 0.67 -0.34 0.34 0 0 Z " fill="#3F3B3C" transform="translate(233,353)"/>
<path d="M0 0 C4.70588235 0.70588235 4.70588235 0.70588235 6 2 C6.14115161 4.67058851 6.04247107 7.32432238 6 10 C6.66 10 7.32 10 8 10 C8 10.66 8 11.32 8 12 C6.68 12 5.36 12 4 12 C3.97421875 11.37351562 3.9484375 10.74703125 3.921875 10.1015625 C3.86515625 9.28429687 3.8084375 8.46703125 3.75 7.625 C3.70359375 6.81289063 3.6571875 6.00078125 3.609375 5.1640625 C3.2077908 2.81161073 3.2077908 2.81161073 0.953125 1.7109375 C0.30859375 1.47632813 -0.3359375 1.24171875 -1 1 C-0.67 0.67 -0.34 0.34 0 0 Z " fill="#3F3B3C" transform="translate(204,353)"/>
<path d="M0 0 C0.66 0 1.32 0 2 0 C2.33 2.31 2.66 4.62 3 7 C3.33 7 3.66 7 4 7 C4.33 9.97 4.66 12.94 5 16 C3.35 16 1.7 16 0 16 C0 10.72 0 5.44 0 0 Z " fill="#797777" transform="translate(279,349)"/>
<path d="M0 0 C0.99 0 1.98 0 3 0 C4.35015859 4.05047576 3.62084998 6.7920168 3 11 C3.66 11.33 4.32 11.66 5 12 C3.35 12 1.7 12 0 12 C0 8.04 0 4.08 0 0 Z " fill="#403D3E" transform="translate(228,353)"/>
<path d="M0 0 C0.99 0 1.98 0 3 0 C4.35015859 4.05047576 3.62084998 6.7920168 3 11 C3.66 11.33 4.32 11.66 5 12 C3.35 12 1.7 12 0 12 C0 8.04 0 4.08 0 0 Z " fill="#403D3E" transform="translate(199,353)"/>
<path d="M0 0 C0.99 0 1.98 0 3 0 C2.70842276 3.79050406 2.45454034 6.35065665 0.25 9.5 C-2 11 -2 11 -4.75 10.75 C-5.4925 10.5025 -6.235 10.255 -7 10 C-6.38125 9.71125 -5.7625 9.4225 -5.125 9.125 C-2.86674235 8.06279958 -2.86674235 8.06279958 -1 6 C-0.60235737 4.01178687 -0.26224651 2.01055661 0 0 Z " fill="#514E4E" transform="translate(194,354)"/>
<path d="M0 0 C2.97 0 5.94 0 9 0 C8.34 1.32 7.68 2.64 7 4 C5.35 4 3.7 4 2 4 C1.34 2.68 0.68 1.36 0 0 Z " fill="#E0DFDF" transform="translate(244,359)"/>
<path d="M0 0 C2.375 -0.1875 2.375 -0.1875 5 0 C7 3 7 3 6.625 5.6875 C6.41875 6.450625 6.2125 7.21375 6 8 C5.67 8 5.34 8 5 8 C4.9175 7.21625 4.835 6.4325 4.75 5.625 C4.27193661 2.85250896 4.27193661 2.85250896 1.9375 1.6875 C1.298125 1.460625 0.65875 1.23375 0 1 C0 0.67 0 0.34 0 0 Z " fill="#5B5859" transform="translate(313,353)"/>
<path d="M0 0 C2.3431213 0.25561323 4.67843403 0.59270772 7 1 C8.33332095 3.6666419 7.67102033 5.16680303 7 8 C6.67 8 6.34 8 6 8 C5.9071875 6.824375 5.9071875 6.824375 5.8125 5.625 C5.544375 4.75875 5.27625 3.8925 5 3 C2.52363988 1.62533375 2.52363988 1.62533375 0 1 C0 0.67 0 0.34 0 0 Z " fill="#5B5858" transform="translate(297,353)"/>
<path d="M0 0 C0.99 0.33 1.98 0.66 3 1 C3 2.32 3 3.64 3 5 C1.68 5 0.36 5 -1 5 C-0.67 3.35 -0.34 1.7 0 0 Z " fill="#393536" transform="translate(240,269)"/>
<path d="M0 0 C0.99 0.33 1.98 0.66 3 1 C2.67 2.32 2.34 3.64 2 5 C1.01 5 0.02 5 -1 5 C-0.67 3.35 -0.34 1.7 0 0 Z " fill="#322F30" transform="translate(310,269)"/>
</svg>
